name Walk9.mot
datacolumns 19
datarows 22
range 2.40000000 2.42100000
endheader

                time	   L_ground_force_vx	   L_ground_force_vy	   L_ground_force_vz	   L_ground_force_px	   L_ground_force_py	   L_ground_force_pz	   R_ground_force_vx	   R_ground_force_vy	   R_ground_force_vz	   R_ground_force_px	   R_ground_force_py	   R_ground_force_pz	   L_ground_torque_x	   L_ground_torque_y	   L_ground_torque_z	   R_ground_torque_x	   R_ground_torque_y	   R_ground_torque_z	
          2.40000000	          5.29518496	         32.01863172	         -5.97886878	          0.00280551	          0.00000000	         -0.00081264	          0.00000000	          0.00000000	          0.00000000	          0.00000000	          0.00000000	          0.00000000	          0.00000000	          0.07824052	          0.00000000	          0.00000000	         -0.00000000	          0.00000000	
          2.40100000	          5.30003743	         36.16591657	         -6.58616838	         -0.01218787	          0.00000000	         -0.00242128	          0.00000000	          0.00000000	          0.00000000	          0.00000000	          0.00000000	          0.00000000	          0.00000000	          0.08439752	          0.00000000	          0.00000000	         -0.00000000	          0.00000000	
          2.40200000	          5.29276883	         40.45731761	         -7.19894160	         -0.02712505	          0.00000000	         -0.00402968	          0.00000000	          0.00000000	          0.00000000	          0.00000000	          0.00000000	          0.00000000	          0.00000000	          0.09066063	          0.00000000	          0.00000000	         -0.00000000	          0.00000000	
          2.40300000	          5.27210330	         44.89031665	         -7.81563067	         -0.04196538	          0.00000000	         -0.00563379	          0.00000000	          0.00000000	          0.00000000	          0.00000000	          0.00000000	          0.00000000	          0.00000000	          0.09701607	          0.00000000	          0.00000000	         -0.00000000	          0.00000000	
          2.40400000	          5.23668250	         49.46176306	         -8.43456545	         -0.05666778	          0.00000000	         -0.00722950	          0.00000000	          0.00000000	          0.00000000	          0.00000000	          0.00000000	          0.00000000	          0.00000000	          0.10344866	          0.00000000	          0.00000000	         -0.00000000	          0.00000000	
          2.40500000	          5.18506405	         54.16781880	         -9.05395793	         -0.07119088	          0.00000000	         -0.00881266	          0.00000000	          0.00000000	          0.00000000	          0.00000000	          0.00000000	          0.00000000	          0.00000000	          0.10994172	          0.00000000	          0.00000000	         -0.00000000	          0.00000000	
          2.40600000	          5.11571419	         59.00395312	         -9.67191092	         -0.08549416	          0.00000000	         -0.01037917	          0.00000000	          0.00000000	          0.00000000	          0.00000000	          0.00000000	          0.00000000	          0.00000000	          0.11647711	          0.00000000	          0.00000000	         -0.00000000	          0.00000000	
          2.40700000	          5.02699525	         63.96500016	        -10.28644226	         -0.09953983	          0.00000000	         -0.01192517	          0.00000000	          0.00000000	          0.00000000	          0.00000000	          0.00000000	          0.00000000	          0.00000000	          0.12303525	          0.00000000	          0.00000000	         -0.00000000	          0.00000000	
          2.40800000	          4.91715572	         69.04524664	        -10.89551164	         -0.11329401	          0.00000000	         -0.01344718	          0.00000000	          0.00000000	          0.00000000	          0.00000000	          0.00000000	          0.00000000	          0.00000000	          0.12959520	          0.00000000	          0.00000000	         -0.00000000	          0.00000000	
          2.40900000	          4.78432701	         74.23852664	        -11.49704204	         -0.12672677	          0.00000000	         -0.01494210	          0.00000000	          0.00000000	          0.00000000	          0.00000000	          0.00000000	          0.00000000	          0.00000000	          0.13613452	          0.00000000	          0.00000000	         -0.00000000	          0.00000000	
          2.41000000	          4.62652592	         79.53833096	        -12.08893830	         -0.13981196	          0.00000000	         -0.01640716	          0.00000000	          0.00000000	          0.00000000	          0.00000000	          0.00000000	          0.00000000	          0.00000000	          0.14262925	          0.00000000	          0.00000000	         -0.00000000	          0.00000000	
          2.41100000	          4.44166208	         84.93793567	        -12.66910489	         -0.15252688	          0.00000000	         -0.01783996	          0.00000000	          0.00000000	          0.00000000	          0.00000000	          0.00000000	          0.00000000	          0.00000000	          0.14905372	          0.00000000	          0.00000000	         -0.00000000	          0.00000000	
          2.41200000	          4.22755097	         90.43054511	        -13.23546236	         -0.16485210	          0.00000000	         -0.01923841	          0.00000000	          0.00000000	          0.00000000	          0.00000000	          0.00000000	          0.00000000	          0.00000000	          0.15538054	          0.00000000	          0.00000000	         -0.00000000	          0.00000000	
          2.41300000	          3.98193275	         96.00944144	        -13.78596178	         -0.17677127	          0.00000000	         -0.02060078	          0.00000000	          0.00000000	          0.00000000	          0.00000000	          0.00000000	          0.00000000	          0.00000000	          0.16158058	          0.00000000	          0.00000000	         -0.00000000	          0.00000000	
          2.41400000	          3.70249729	        101.66813041	        -14.31859607	         -0.18827085	          0.00000000	         -0.02192559	          0.00000000	          0.00000000	          0.00000000	          0.00000000	          0.00000000	          0.00000000	          0.00000000	          0.16762304	          0.00000000	          0.00000000	         -0.00000000	          0.00000000	
          2.41500000	          3.38691420	        107.40047253	        -14.83140781	         -0.19933999	          0.00000000	         -0.02321170	          0.00000000	          0.00000000	          0.00000000	          0.00000000	          0.00000000	          0.00000000	          0.00000000	          0.17347547	          0.00000000	          0.00000000	         -0.00000000	          0.00000000	
          2.41600000	          3.03286683	        113.20079108	        -15.32249333	         -0.20997029	          0.00000000	         -0.02445826	         -0.00000000	          0.00000000	          0.00000000	          0.00000000	          0.00000000	          0.00000000	          0.00000000	          0.17910386	          0.00000000	          0.00000000	         -0.00000000	          0.00000000	
          2.41700000	          2.63808811	        119.06395207	        -15.79000414	         -0.22015567	          0.00000000	         -0.02566466	         -0.00000000	          0.00000000	          0.00000000	          0.00000000	          0.00000000	          0.00000000	          0.00000000	          0.18447256	          0.00000000	          0.00000000	         -0.00000000	          0.00000000	
          2.41800000	          2.20039632	        124.98541511	        -16.23214680	         -0.22989221	          0.00000000	         -0.02683058	         -0.00000000	          0.00000000	          0.00000000	          0.00000000	          0.00000000	          0.00000000	          0.00000000	          0.18954422	          0.00000000	          0.00000000	         -0.00000000	          0.00000000	
          2.41900000	          1.71772890	        130.96125663	        -16.64718242	         -0.23917795	          0.00000000	         -0.02795592	         -0.00000000	          0.00000000	          0.00000000	          0.00000000	          0.00000000	          0.00000000	          0.00000000	          0.19427978	          0.00000000	          0.00000000	         -0.00000000	          0.00000000	
          2.42000000	          1.18817289	        136.98816779	        -17.03342670	         -0.24801276	          0.00000000	         -0.02904079	         -0.00000000	          0.00000000	          0.00000000	          0.00000000	          0.00000000	          0.00000000	          0.00000000	          0.19863842	          0.00000000	          0.00000000	         -0.00000000	          0.00000000	
          2.42100000	          0.60999105	        143.06342955	        -17.38925066	         -0.25639819	          0.00000000	         -0.03008547	         -0.00000000	          0.00000000	          0.00000000	          0.00000000	          0.00000000	          0.00000000	          0.00000000	          0.20257767	          0.00000000	          0.00000000	         -0.00000000	          0.00000000	
